<?xml version="1.0" encoding="UTF-8"?><svg id="Camada_1" xmlns="http://www.w3.org/2000/svg" viewBox="0 0 1200 300"><path d="M188.52,295.01c-12.29,3.25-25.2,4.99-38.52,4.99H0V0l37.44,30.58c81.31,66.43,135.14,160.64,151.08,264.42Z" style="fill:#d49e5e;"/><path d="M300,150c0,41.42-16.79,78.92-43.93,106.06C224.43,149.93,147.32,63.31,45.57,19.58L0,0h150c82.84,0,150,67.16,150,150Z" style="fill:#034d66;"/><path d="M256.07,256.06c-18.42,18.42-41.6,32.07-67.55,38.94C172.58,191.22,118.75,97.02,37.44,30.58L0,0l45.57,19.58c101.76,43.73,178.86,130.35,210.5,236.48Z" style="fill:#a78351;"/><path d="M485.95,156.35c0,10.32-1.1,19.11-3.29,26.37-2.19,7.26-5.19,13.26-9,18-3.81,4.74-8.15,8.45-13,11.11-4.86,2.67-9.99,4.53-15.39,5.58-5.4,1.05-10.74,1.58-16.02,1.58h-29.25v-124.02h27.27c7.32,0,14.47.8,21.47,2.39,6.99,1.59,13.29,4.58,18.9,8.95,5.61,4.38,10.06,10.59,13.36,18.63,3.3,8.04,4.95,18.51,4.95,31.41ZM467.05,156.35c0-10.44-1.08-18.79-3.24-25.07-2.16-6.27-5-10.99-8.5-14.17-3.51-3.18-7.38-5.31-11.61-6.39s-8.45-1.62-12.65-1.62h-13.23v95.94h13.41c4.38,0,8.7-.69,12.96-2.07,4.26-1.38,8.1-3.84,11.52-7.38,3.42-3.54,6.17-8.49,8.24-14.85,2.07-6.36,3.1-14.49,3.1-24.39Z" style="fill:#034d66;"/><path d="M566.59,197.2c0,3.78.6,6.53,1.8,8.24s3.09,2.99,5.67,3.83l-4.05,11.88c-4.32-.54-8.07-1.83-11.25-3.87-3.18-2.04-5.55-5.16-7.11-9.36-3.42,4.38-7.74,7.7-12.96,9.95-5.22,2.25-10.89,3.38-17.01,3.38-9.54,0-17.07-2.7-22.59-8.1-5.52-5.4-8.28-12.51-8.28-21.33,0-9.9,3.85-17.49,11.56-22.77,7.71-5.28,18.8-7.92,33.26-7.92h13.77v-7.2c0-6.54-1.94-11.19-5.81-13.95-3.87-2.76-9.26-4.14-16.15-4.14-3.12,0-6.84.39-11.16,1.17-4.32.78-8.91,2.01-13.77,3.69l-4.41-12.6c5.88-2.22,11.5-3.81,16.88-4.77,5.37-.96,10.4-1.44,15.08-1.44,12.24,0,21.39,2.78,27.45,8.32,6.06,5.55,9.09,13.16,9.09,22.82v44.19ZM526.54,208.27c4.44,0,8.7-1.14,12.78-3.42,4.08-2.28,7.44-5.46,10.08-9.54v-22.95h-12.6c-10.02,0-17.13,1.7-21.33,5.08-4.2,3.39-6.3,8.03-6.3,13.91,0,5.52,1.44,9.72,4.32,12.6s7.23,4.32,13.05,4.32Z" style="fill:#034d66;"/><path d="M590.26,218.98v-94.86h14.85l1.26,12.78c3.9-4.86,8.65-8.58,14.27-11.16,5.61-2.58,11.21-3.87,16.79-3.87,9.12,0,15.84,2.48,20.16,7.42,4.32,4.95,6.48,11.83,6.48,20.65v69.03h-17.28v-58.41c0-6-.35-10.87-1.04-14.62-.69-3.75-2.12-6.46-4.28-8.15-2.16-1.68-5.43-2.52-9.81-2.52-3.42,0-6.66.75-9.72,2.25-3.06,1.5-5.8,3.39-8.24,5.67-2.43,2.28-4.49,4.65-6.16,7.11v68.67h-17.28Z" style="fill:#034d66;"/><path d="M733.54,124.13v81.72h26.37v13.14h-72.54v-13.14h28.89v-68.58h-27.99v-13.14h45.27ZM720.67,78.77c3.6,0,6.49,1.11,8.68,3.33,2.19,2.22,3.29,4.92,3.29,8.1s-1.09,6.08-3.29,8.33-5.08,3.38-8.68,3.38-6.41-1.12-8.59-3.38c-2.19-2.25-3.29-5.02-3.29-8.33s1.09-5.88,3.29-8.1c2.19-2.22,5.05-3.33,8.59-3.33Z" style="fill:#034d66;"/><path d="M791.4,177.4c.36,6.96,1.77,12.65,4.23,17.05,2.46,4.41,5.67,7.65,9.63,9.72,3.96,2.07,8.34,3.1,13.14,3.1s9.09-.72,13.05-2.16c3.96-1.44,7.98-3.54,12.06-6.3l7.83,10.89c-4.44,3.54-9.57,6.34-15.39,8.41-5.82,2.07-11.85,3.11-18.09,3.11-9.48,0-17.54-2.09-24.17-6.25-6.63-4.17-11.67-9.97-15.12-17.42-3.45-7.44-5.18-16.08-5.18-25.92s1.72-18.06,5.18-25.56c3.45-7.5,8.32-13.41,14.62-17.73,6.3-4.32,13.8-6.48,22.5-6.48,8.16,0,15.19,1.89,21.1,5.67,5.91,3.78,10.45,9.17,13.63,16.15,3.18,6.99,4.77,15.34,4.77,25.06,0,1.62-.03,3.18-.09,4.68-.06,1.5-.15,2.82-.27,3.96h-63.45ZM815.88,135.38c-6.72,0-12.32,2.4-16.79,7.2-4.47,4.8-7.04,12.21-7.7,22.23h47.16c-.18-9.6-2.27-16.9-6.25-21.91-3.99-5.01-9.47-7.52-16.42-7.52Z" style="fill:#034d66;"/><path d="M910.02,85.97v108.54c0,4.56,1.41,7.79,4.23,9.68,2.82,1.89,6.45,2.83,10.89,2.83,2.82,0,5.49-.3,8.01-.9,2.52-.6,5.04-1.38,7.56-2.34l4.5,12.33c-2.64,1.32-5.94,2.51-9.9,3.55s-8.43,1.58-13.41,1.58c-8.88,0-15.96-2.49-21.24-7.47-5.28-4.98-7.92-11.82-7.92-20.52v-94.14h-28.89v-13.14h46.17Z" style="fill:#034d66;"/><path d="M1118.1,188.11h-46.98l-9.36,30.87h-17.91l39.96-124.02h22.5l40.05,124.02h-18.9l-9.36-30.87ZM1075.26,173.81h38.7l-19.26-64.44-19.44,64.44Z" style="fill:#034d66;"/><path d="M1172.1,207.17c0-2.58.61-4.93,1.82-7.03,1.22-2.1,2.88-3.76,4.98-4.98,2.1-1.22,4.45-1.82,7.03-1.82s5.09.61,7.22,1.82c2.13,1.22,3.8,2.88,5.02,4.98,1.22,2.1,1.82,4.45,1.82,7.03s-.61,4.96-1.82,7.11c-1.22,2.16-2.89,3.85-5.02,5.09-2.13,1.24-4.54,1.86-7.22,1.86s-4.93-.62-7.03-1.86c-2.1-1.24-3.76-2.94-4.98-5.09-1.22-2.15-1.82-4.52-1.82-7.11Z" style="fill:#034d66;"/></svg>