<svg xmlns="http://www.w3.org/2000/svg" id="Camada_1" data-name="Camada 1" viewBox="75.52 98.12 1870.22 315.36">
  <defs>
    <style>
      .cls-1 {
        fill: #ffffff;
      }

      .cls-1, .cls-2 {
        stroke-width: 0px;
      }

      .cls-2 {
        fill: #ffffff;
      }
    </style>
  </defs>
  <g>
    <path class="cls-1" d="M220.86,98.12c-85.58,0-145.34,64.1-145.34,155.89,0,.71,0,1.42.03,2.13.88,92.65,60.61,157.34,145.35,157.34,84.77-.03,144.52-64.82,145.31-157.67v-1.8c0-91.79-59.77-155.89-145.34-155.89ZM102.66,255.7c0-.16,0-.32-.01-.48-.02-.4-.01-.8-.01-1.2,0-2.99.1-5.96.24-8.9,56.98,11.92,94.41,79.22,102.79,148.39-60.77-8.38-102.4-66.65-103-137.8ZM233.31,393.9c9.61-20.16,33.42-60.53,90.8-68.41-17.61,37.9-49.71,64.01-90.8,68.41ZM329.36,312.67c-55.35,4.48-87.45,27.7-105.44,48.98-13.41-67.2-58.83-116.04-120.21-127.28,7.34-67.76,52.56-120.08,117.16-120.08,70.72,0,118.23,62.68,118.23,139.71v1.69c-.17,20.45-3.58,39.69-9.74,56.97Z"/>
    <path class="cls-1" d="M241.86,151.73c-35.91,0-65.11,29.19-65.11,65.08s29.19,65.11,65.11,65.11,65.11-29.22,65.11-65.11-29.19-65.08-65.11-65.08ZM241.86,270.19c-20.89,0-37.88-19.39-37.88-53.38s17-53.35,37.88-53.35,37.88,19.36,37.88,53.35-17,53.38-37.88,53.38Z"/>
  </g>
  <g>
    <g>
      <g>
        <path class="cls-2" d="M453.5,284.27v-.75c0-5.49,9.23-6.74,9.23-16.48v-135.8c0-9.98-9.23-10.73-9.23-16.48v-.75c0-2.25,2-3.49,5.24-3.49h39.19c3.24,0,5.49,1.25,5.49,3.49v.75c0,5.74-10.23,6.49-10.23,16.48v132.05c0,6.49,3,11.73,9.24,11.73h45.68c16.72,0,19.97-29.96,29.71-29.96h2.5c2.75,0,4.24,1.75,3.49,4.99l-6.24,31.2c-1,4.24-2.75,6.49-7.24,6.49h-111.58c-3.25,0-5.24-1.5-5.24-3.5Z"/>
        <path class="cls-2" d="M596.03,284.02v-1c0-5.49,9.24-6.49,9.24-16.23v-65.4c0-10.24-9.24-12.73-9.24-17.22v-.75c0-2,1.75-3,4.5-4.49l24.96-12.48c5.74-2.75,8.99.25,8.99,4.24v96.11c0,9.74,10.24,10.73,10.24,16.23v1c0,2.25-2.25,3.74-5.49,3.74h-37.94c-3.24,0-5.24-1.5-5.24-3.74ZM619.74,109.78c12.23,0,20.22,7.99,20.22,18.72s-7.99,18.72-20.22,18.72-20.72-7.74-20.72-18.72,8.24-18.72,20.72-18.72Z"/>
        <path class="cls-2" d="M668.42,243.33v-50.67c0-10.23-9.49-11.73-9.49-16.72v-.75c0-2.25,1.75-3.99,4.24-4.49l26.46-4.24c5.24-.75,8.49,0,8.49,3.74l-.5,81.13c-.25,18.22,4.99,26.71,16.98,26.96,22.96.25,45.18-26.46,45.18-60.41,0-24.46-20.72-23.46-20.72-39.94,0-6.99,4.24-12.48,13.98-12.48,11.73,0,23.46,9.49,23.46,39.69,0,52.42-31.2,85.12-68.15,85.12-20.72,0-39.94-11.48-39.94-46.93Z"/>
        <path class="cls-2" d="M795.23,284.02v-1c0-5.49,9.23-6.49,9.23-16.23v-65.4c0-10.24-9.23-12.73-9.23-17.22v-.75c0-2,1.75-3,4.49-4.49l24.96-12.48c5.74-2.75,8.99.25,8.99,4.24v96.11c0,9.74,10.23,10.73,10.23,16.23v1c0,2.25-2.25,3.74-5.49,3.74h-37.94c-3.25,0-5.24-1.5-5.24-3.74ZM818.94,109.78c12.23,0,20.22,7.99,20.22,18.72s-7.99,18.72-20.22,18.72-20.72-7.74-20.72-18.72,8.24-18.72,20.72-18.72Z"/>
        <path class="cls-2" d="M859.13,227.6c0-36.7,25.96-62.16,58.66-62.16,15.23,0,27.21,6.24,35.45,15.73v-9.24c0-4.24,3.49-6.74,9.23-5.24l21.72,4.49c2.99.75,4.49,2.5,4.49,5.24v.75c0,4.24-9.99,6.49-9.99,17.47v72.39c0,9.74,9.49,11.23,9.49,16.48v.75c0,2.25-1.5,3.5-4.24,3.5h-25.96c-2.75,0-4.74-2-4.74-4.74v-9.98c-7.99,11.23-21.72,17.22-35.95,17.22-30.45,0-58.16-23.71-58.16-62.66ZM924.04,280.77c12.23,0,26.46-10.48,26.46-32.2v-39.94c0-15.98-14.23-33.7-31.7-33.7-18.47,0-30.7,15.98-31.2,42.44-.75,33.95,13.73,62.91,36.45,63.41Z"/>
      </g>
      <g>
        <path class="cls-2" d="M1070.54,204.17c0-52.67,35.7-91.11,87.37-91.11s86.87,42.94,86.87,92.11-37.2,90.12-85.63,90.12c-52.92,0-88.62-42.44-88.62-91.12ZM1167.15,281.81c28.46,0,47.93-24.96,47.93-54.67,0-55.42-27.46-100.6-67.65-100.6-28.46,0-47.18,22.97-47.18,55.17,0,55.17,26.71,100.1,66.9,100.1Z"/>
        <path class="cls-2" d="M1261.75,289.05v-.75c0-5.74,9.24-6.49,9.24-16.23v-131.56c0-10.48-9.24-12.48-9.24-16.97v-.75c0-2.25,1.75-3.24,4.24-4.49l25.21-12.48c5.74-2.75,8.99.25,8.99,3.99v162.26c0,9.74,10.24,10.48,10.24,16.23v.75c0,2.25-2.25,3.74-5.49,3.74h-37.94c-3.24,0-5.24-1.5-5.24-3.74Z"/>
        <path class="cls-2" d="M1328.15,289.05v-1c0-5.49,9.23-6.49,9.23-16.23v-65.4c0-10.24-9.23-12.73-9.23-17.22v-.75c0-2,1.75-3,4.49-4.49l24.96-12.48c5.74-2.75,8.99.25,8.99,4.24v96.11c0,9.74,10.23,10.73,10.23,16.23v1c0,2.25-2.25,3.74-5.49,3.74h-37.94c-3.25,0-5.24-1.5-5.24-3.74ZM1351.87,114.8c12.23,0,20.22,7.99,20.22,18.72s-7.99,18.72-20.22,18.72-20.72-7.74-20.72-18.72,8.24-18.72,20.72-18.72Z"/>
        <path class="cls-2" d="M1400.55,248.36v-50.67c0-10.23-9.49-11.73-9.49-16.72v-.75c0-2.25,1.75-3.99,4.24-4.49l26.46-4.24c5.24-.75,8.49,0,8.49,3.74l-.5,81.13c-.25,18.22,4.99,26.71,16.97,26.96,22.97.25,45.18-26.46,45.18-60.41,0-24.46-20.72-23.46-20.72-39.94,0-6.99,4.25-12.48,13.98-12.48,11.73,0,23.47,9.49,23.47,39.69,0,52.42-31.2,85.12-68.15,85.12-20.72,0-39.94-11.48-39.94-46.93Z"/>
        <path class="cls-2" d="M1525.11,231.88c0-36.45,26.21-61.16,60.41-61.41,26.21-.25,45.93,11.73,45.93,33.95,0,18.47-16.98,31.45-40.19,36.45-13.48,3-25.71,2.25-36.19,1.25,6.24,19.47,20.47,32.2,39.94,32.2,16.73,0,27.96-8.24,32.95-18.22,2.75-3.49,8.49-2.5,7.99,2.5-2.25,14.73-17.47,36.7-48.68,36.7-36.7,0-62.16-25.46-62.16-63.41ZM1552.57,231.13c9.99.75,23.22.5,33.2-1.5,10.23-2.25,17.97-7.99,17.72-25.21-.25-12.98-8.99-23.96-22.22-23.96-17.72,0-29.46,16.98-29.46,38.69,0,4.24.25,8.24.75,11.98Z"/>
        <path class="cls-2" d="M1652.17,289.05v-1c0-5.49,9.24-6.49,9.24-16.23v-65.4c0-10.24-9.24-12.73-9.24-17.22v-.75c0-2,1.75-3,4.5-4.49l24.96-12.48c5.74-2.75,8.99.25,8.99,4.24v96.11c0,9.74,10.24,10.73,10.24,16.23v1c0,2.25-2.25,3.74-5.49,3.74h-37.94c-3.24,0-5.24-1.5-5.24-3.74ZM1675.88,114.8c12.23,0,20.22,7.99,20.22,18.72s-7.99,18.72-20.22,18.72-20.72-7.74-20.72-18.72,8.24-18.72,20.72-18.72Z"/>
        <path class="cls-2" d="M1719.32,289.3v-1c0-5.49,9.49-6.49,9.49-16.23v-67.15c0-10.24-10.73-10.73-10.73-16.23v-.75c0-2,1.75-3.74,4.49-5.24l24.46-11.23c5.24-2.5,7.24,0,7.24,4.24v19.47c5.49-15.98,17.22-24.71,33.2-24.71,14.73,0,22.97,9.49,22.97,20.97,0,8.49-3.5,15.73-12.98,15.73-16.23,0-8.74-19.47-23.22-19.47-11.73,0-17.22,14.73-17.22,30.95v53.42c0,9.74,11.48,10.73,11.48,16.23v1c0,2.25-2,3.5-5.24,3.5h-38.69c-3.24,0-5.24-1.25-5.24-3.5Z"/>
        <path class="cls-2" d="M1816.17,232.63c0-36.7,25.96-62.16,58.66-62.16,15.23,0,27.21,6.24,35.45,15.73v-9.24c0-4.24,3.49-6.74,9.24-5.24l21.72,4.49c3,.75,4.49,2.5,4.49,5.24v.75c0,4.24-9.98,6.49-9.98,17.47v72.39c0,9.74,9.49,11.23,9.49,16.48v.75c0,2.25-1.5,3.5-4.25,3.5h-25.96c-2.75,0-4.74-2-4.74-4.74v-9.98c-7.99,11.23-21.72,17.22-35.95,17.22-30.45,0-58.16-23.72-58.16-62.66ZM1881.08,285.8c12.23,0,26.46-10.48,26.46-32.2v-39.94c0-15.98-14.23-33.7-31.7-33.7-18.47,0-30.7,15.98-31.2,42.44-.75,33.95,13.73,62.91,36.45,63.41Z"/>
      </g>
    </g>
    <g>
      <path class="cls-1" d="M504.73,336.89c-1.23,0-2.17.34-2.81,1.02-.65.68-.97,1.63-.97,2.86v51.82l-39.98-53.27c-.65-.9-1.21-1.53-1.7-1.89-.49-.35-1.25-.53-2.28-.53s-1.88.36-2.52,1.07c-.65.71-.97,1.71-.97,3.01v61.72c0,1.29.32,2.28.97,2.96.64.68,1.58,1.02,2.81,1.02,1.16,0,2.07-.34,2.72-1.02.65-.68.97-1.67.97-2.96v-51.85l39.98,53.4c.65.84,1.26,1.46,1.85,1.84.58.39,1.36.58,2.33.58,1.03,0,1.83-.34,2.38-1.02.55-.68.83-1.63.83-2.86v-62.01c0-1.23-.31-2.18-.92-2.86-.62-.68-1.5-1.02-2.67-1.02Z"/>
      <path class="cls-1" d="M560.04,358.14c-1.3,0-2.28.32-2.96.97-.68.65-1.02,1.65-1.02,3.01v23.48c0,4.4-1.26,7.96-3.78,10.67-2.52,2.72-5.79,4.08-9.8,4.08-3.68,0-6.39-1.02-8.1-3.06-1.71-2.04-2.57-5.13-2.57-9.27v-25.91c0-1.36-.34-2.36-1.02-3.01-.68-.65-1.67-.97-2.96-.97s-2.18.32-2.86.97c-.68.65-1.02,1.65-1.02,3.01v26.01c0,4.14.63,7.6,1.89,10.38,1.26,2.78,3.14,4.87,5.63,6.26,2.49,1.39,5.64,2.09,9.46,2.09s7.29-1,10.24-3.01c2.14-1.46,3.83-3.4,5.09-5.82v4.56c0,1.29.34,2.3,1.02,3.01.68.71,1.63,1.07,2.86,1.07,2.52,0,3.78-1.36,3.78-4.08v-40.46c0-1.36-.34-2.36-1.02-3.01-.68-.65-1.63-.97-2.86-.97Z"/>
      <path class="cls-1" d="M604,399.38c-.58,0-1.31.13-2.18.39-.87.26-1.92.39-3.15.39-3.49,0-6.02-.95-7.57-2.86-1.55-1.91-2.33-4.71-2.33-8.39v-23.97h12.23c1.1,0,1.94-.27,2.52-.83.58-.55.88-1.31.88-2.28s-.29-1.71-.88-2.23c-.58-.52-1.42-.78-2.52-.78h-12.23v-11.16c0-1.29-.34-2.28-1.02-2.96-.68-.68-1.64-1.02-2.86-1.02s-2.2.34-2.91,1.02c-.71.68-1.07,1.67-1.07,2.96v11.16h-6.5c-1.1,0-1.94.26-2.52.78-.58.52-.87,1.26-.87,2.23s.29,1.73.87,2.28c.58.55,1.43.83,2.52.83h6.5v24.74c0,3.69.62,6.81,1.85,9.36,1.23,2.56,3.09,4.5,5.58,5.82,2.49,1.32,5.58,1.99,9.27,1.99,1.03,0,2.18-.11,3.44-.34,1.26-.23,2.28-.47,3.06-.73.71-.26,1.21-.71,1.5-1.36.29-.65.44-1.36.44-2.13,0-1.1-.19-1.88-.58-2.33-.39-.45-.88-.65-1.46-.58Z"/>
      <path class="cls-1" d="M636.02,357.85c-4.27.13-7.86,1.23-10.77,3.3-2.17,1.54-3.82,3.58-4.95,6.1v-5.13c0-1.29-.34-2.28-1.02-2.96-.68-.68-1.64-1.02-2.86-1.02s-2.17.34-2.81,1.02c-.65.68-.97,1.67-.97,2.96v40.46c0,1.29.34,2.3,1.02,3.01s1.66,1.07,2.96,1.07,2.28-.36,2.96-1.07c.68-.71,1.02-1.71,1.02-3.01v-23.48c0-4.2,1.18-7.52,3.54-9.95,2.36-2.42,5.74-3.83,10.14-4.22l1.55-.19c1.23-.13,2.13-.52,2.72-1.16.58-.65.84-1.52.78-2.62-.07-1.16-.39-1.99-.97-2.48-.58-.48-1.36-.69-2.33-.63Z"/>
      <path class="cls-1" d="M651.25,337.86c-1.62,0-2.88.41-3.79,1.21-.9.81-1.36,1.99-1.36,3.54s.45,2.67,1.36,3.54c.91.87,2.17,1.31,3.79,1.31s2.96-.44,3.83-1.31c.87-.87,1.31-2.05,1.31-3.54s-.44-2.73-1.31-3.54c-.87-.81-2.15-1.21-3.83-1.21Z"/>
      <path class="cls-1" d="M651.25,358.34c-1.29,0-2.27.36-2.91,1.07-.65.71-.97,1.75-.97,3.1v39.69c0,1.36.32,2.41.97,3.15.64.74,1.62,1.12,2.91,1.12s2.28-.37,2.96-1.12c.68-.74,1.02-1.8,1.02-3.15v-39.69c0-1.36-.35-2.39-1.07-3.1-.71-.71-1.68-1.07-2.91-1.07Z"/>
      <path class="cls-1" d="M704.04,362.7c-2.07-1.75-4.37-2.98-6.89-3.69-2.52-.71-4.95-1.07-7.28-1.07-3.56,0-6.75.55-9.56,1.65-2.82,1.1-5.23,2.7-7.23,4.8-2.01,2.1-3.53,4.64-4.56,7.62-1.04,2.98-1.55,6.34-1.55,10.09,0,4.92.92,9.24,2.77,12.95,1.84,3.72,4.48,6.62,7.91,8.69,3.43,2.07,7.5,3.1,12.23,3.1,2.33,0,4.72-.37,7.18-1.12,2.46-.74,4.72-1.96,6.79-3.64.65-.45,1.07-.99,1.26-1.6.19-.62.21-1.24.05-1.89-.16-.65-.47-1.18-.92-1.6-.45-.42-1-.66-1.65-.73-.65-.06-1.32.16-2.04.68-1.75,1.29-3.48,2.2-5.19,2.72-1.71.52-3.38.78-5,.78-4.92,0-8.7-1.63-11.35-4.9-2.65-3.27-3.98-7.72-3.98-13.34,0-2.91.34-5.46,1.02-7.67.68-2.2,1.67-4.04,2.96-5.53,1.29-1.49,2.88-2.64,4.76-3.44,1.88-.81,4.08-1.21,6.6-1.21,1.62,0,3.3.26,5.05.78,1.75.52,3.46,1.43,5.14,2.72.71.52,1.41.74,2.09.68.68-.06,1.24-.31,1.7-.73.45-.42.78-.94.97-1.55.19-.61.19-1.24,0-1.89-.19-.65-.61-1.2-1.26-1.65Z"/>
      <path class="cls-1" d="M718.69,358.34c-1.29,0-2.27.36-2.91,1.07-.65.71-.97,1.75-.97,3.1v39.69c0,1.36.32,2.41.97,3.15.64.74,1.62,1.12,2.91,1.12s2.28-.37,2.96-1.12c.68-.74,1.02-1.8,1.02-3.15v-39.69c0-1.36-.35-2.39-1.07-3.1-.71-.71-1.68-1.07-2.91-1.07Z"/>
      <path class="cls-1" d="M718.69,337.86c-1.62,0-2.88.41-3.79,1.21-.9.81-1.36,1.99-1.36,3.54s.45,2.67,1.36,3.54c.91.87,2.17,1.31,3.79,1.31s2.96-.44,3.83-1.31c.87-.87,1.31-2.05,1.31-3.54s-.44-2.73-1.31-3.54c-.87-.81-2.15-1.21-3.83-1.21Z"/>
      <path class="cls-1" d="M768.86,360.95c-3.36-2-7.34-3.01-11.93-3.01-3.43,0-6.52.57-9.27,1.7-2.75,1.13-5.13,2.77-7.13,4.9-2.01,2.13-3.53,4.71-4.56,7.71-1.04,3.01-1.55,6.39-1.55,10.14,0,4.98.92,9.3,2.77,12.95,1.84,3.66,4.45,6.49,7.81,8.49,3.36,2.01,7.34,3.01,11.93,3.01,3.43,0,6.52-.57,9.27-1.7,2.75-1.13,5.13-2.78,7.13-4.95,2-2.17,3.53-4.74,4.56-7.71,1.04-2.97,1.55-6.34,1.55-10.09,0-4.98-.92-9.3-2.77-12.95-1.84-3.65-4.45-6.49-7.81-8.49ZM769.69,392.2c-1.2,2.72-2.89,4.79-5.09,6.21-2.2,1.43-4.76,2.14-7.67,2.14-4.4,0-7.93-1.57-10.58-4.71-2.65-3.14-3.98-7.62-3.98-13.44,0-3.95.6-7.26,1.8-9.95,1.2-2.68,2.88-4.72,5.04-6.11,2.17-1.39,4.74-2.09,7.72-2.09,4.46,0,8,1.55,10.63,4.66,2.62,3.1,3.93,7.6,3.93,13.49,0,3.82-.6,7.08-1.8,9.8Z"/>
      <path class="cls-1" d="M824.51,359.98c-2.49-1.36-5.61-2.04-9.36-2.04-4.01,0-7.55.96-10.63,2.86-2.38,1.48-4.23,3.52-5.58,6.1v-4.79c0-1.29-.34-2.28-1.02-2.96-.68-.68-1.64-1.02-2.86-1.02s-2.17.34-2.81,1.02c-.65.68-.97,1.67-.97,2.96v40.46c0,1.29.32,2.3.97,3.01.64.71,1.62,1.07,2.91,1.07,2.65,0,3.98-1.36,3.98-4.08v-23.48c0-4.46,1.28-8.04,3.84-10.72,2.55-2.68,6-4.03,10.33-4.03,3.75,0,6.49,1.02,8.2,3.06,1.71,2.04,2.57,5.26,2.57,9.66v25.52c0,1.29.34,2.3,1.02,3.01s1.66,1.07,2.96,1.07c1.23,0,2.18-.36,2.86-1.07.68-.71,1.02-1.71,1.02-3.01v-26.01c0-4.2-.62-7.68-1.84-10.43-1.23-2.75-3.09-4.8-5.58-6.16Z"/>
      <path class="cls-1" d="M850.27,337.86c-1.62,0-2.88.41-3.79,1.21-.9.81-1.36,1.99-1.36,3.54s.45,2.67,1.36,3.54c.91.87,2.17,1.31,3.79,1.31s2.96-.44,3.83-1.31c.87-.87,1.31-2.05,1.31-3.54s-.44-2.73-1.31-3.54c-.87-.81-2.15-1.21-3.83-1.21Z"/>
      <path class="cls-1" d="M850.27,358.34c-1.29,0-2.27.36-2.91,1.07-.65.71-.97,1.75-.97,3.1v39.69c0,1.36.32,2.41.97,3.15.64.74,1.62,1.12,2.91,1.12s2.28-.37,2.96-1.12c.68-.74,1.02-1.8,1.02-3.15v-39.69c0-1.36-.35-2.39-1.07-3.1-.71-.71-1.68-1.07-2.91-1.07Z"/>
      <path class="cls-1" d="M891.03,380.56l-8.83-1.84c-2.46-.52-4.27-1.36-5.44-2.52-1.16-1.16-1.75-2.65-1.75-4.46,0-2.33.94-4.2,2.82-5.63,1.87-1.42,4.62-2.13,8.25-2.13,1.94,0,3.91.31,5.92.92,2.01.62,3.98,1.57,5.92,2.86.71.45,1.39.65,2.04.58s1.2-.31,1.65-.73c.45-.42.76-.94.92-1.55.16-.61.13-1.23-.1-1.84-.23-.61-.66-1.15-1.31-1.6-2.07-1.62-4.38-2.8-6.94-3.54-2.56-.74-5.26-1.12-8.1-1.12-3.69,0-6.92.58-9.7,1.75-2.78,1.16-4.93,2.8-6.45,4.9-1.52,2.1-2.28,4.61-2.28,7.52,0,3.3.99,5.98,2.96,8.05,1.97,2.07,5,3.53,9.07,4.37l8.83,1.94c2.65.58,4.59,1.41,5.82,2.47,1.23,1.07,1.84,2.51,1.84,4.32,0,2.33-.94,4.17-2.81,5.53-1.88,1.36-4.66,2.04-8.35,2.04-2.33,0-4.67-.31-7.03-.92-2.36-.61-4.8-1.7-7.33-3.25-.78-.39-1.47-.54-2.09-.44-.61.1-1.13.37-1.55.83-.42.45-.68.99-.78,1.6-.1.62-.02,1.23.25,1.84.26.62.71,1.15,1.36,1.6,2.52,1.75,5.26,2.98,8.2,3.69,2.94.71,5.87,1.07,8.78,1.07,5.69,0,10.25-1.26,13.68-3.78,3.43-2.52,5.15-5.92,5.15-10.19,0-3.36-1.05-6.03-3.15-8.01-2.1-1.97-5.26-3.41-9.46-4.32Z"/>
      <path class="cls-1" d="M940.91,399.38c-.58,0-1.31.13-2.18.39-.87.26-1.92.39-3.15.39-3.49,0-6.02-.95-7.57-2.86-1.55-1.91-2.33-4.71-2.33-8.39v-23.97h12.23c1.1,0,1.94-.27,2.52-.83.58-.55.88-1.31.88-2.28s-.29-1.71-.88-2.23c-.58-.52-1.42-.78-2.52-.78h-12.23v-11.16c0-1.29-.34-2.28-1.02-2.96-.68-.68-1.64-1.02-2.86-1.02s-2.2.34-2.91,1.02c-.71.68-1.07,1.67-1.07,2.96v11.16h-6.5c-1.1,0-1.94.26-2.52.78-.58.52-.87,1.26-.87,2.23s.29,1.73.87,2.28c.58.55,1.43.83,2.52.83h6.5v24.74c0,3.69.61,6.81,1.85,9.36,1.23,2.56,3.09,4.5,5.58,5.82,2.49,1.32,5.58,1.99,9.27,1.99,1.03,0,2.18-.11,3.44-.34,1.26-.23,2.28-.47,3.06-.73.71-.26,1.21-.71,1.5-1.36.29-.65.44-1.36.44-2.13,0-1.1-.19-1.88-.58-2.33-.39-.45-.88-.65-1.46-.58Z"/>
      <path class="cls-1" d="M984.47,365.95c-1.29-2.68-3.26-4.69-5.92-6.02-2.66-1.33-6.02-1.99-10.09-1.99-2.52,0-5.18.33-7.96.97-2.78.65-5.6,1.68-8.44,3.11-.78.39-1.34.91-1.7,1.55-.35.65-.5,1.31-.44,1.99.06.68.29,1.28.68,1.8.39.52.9.86,1.55,1.02.65.16,1.42.02,2.33-.44,2.52-1.29,4.92-2.23,7.18-2.81,2.26-.58,4.53-.87,6.79-.87,3.69,0,6.34.89,7.96,2.67,1.62,1.78,2.42,4.68,2.42,8.69v3.01h-3.1c-7.12,0-12.73.42-16.83,1.26-4.11.84-7.05,2.27-8.83,4.27-1.78,2.01-2.67,4.75-2.67,8.25,0,2.72.74,5.18,2.23,7.37,1.49,2.2,3.51,3.93,6.06,5.19,2.56,1.26,5.45,1.89,8.69,1.89,2.65,0,5.05-.49,7.18-1.45,2.13-.97,3.93-2.33,5.39-4.08.87-1.04,1.55-2.23,2.08-3.53v4.79c0,1.29.32,2.3.97,3.01.65.71,1.58,1.07,2.82,1.07,1.16,0,2.05-.36,2.67-1.07s.92-1.71.92-3.01v-26.3c0-4.2-.65-7.65-1.94-10.33ZM977.14,394.04c-1.13,2.13-2.68,3.82-4.66,5.05-1.97,1.23-4.26,1.84-6.84,1.84-3.17,0-5.68-.84-7.52-2.52-1.84-1.68-2.77-3.85-2.77-6.5,0-2.13.6-3.78,1.8-4.95,1.2-1.16,3.3-1.99,6.31-2.47,3.01-.48,7.13-.73,12.37-.73h3.01v2.91c0,2.78-.56,5.24-1.7,7.38Z"/>
    </g>
    <g>
      <path class="cls-1" d="M1505.32,387.45c-.41,7.42-5.58,11.57-13.48,11.57-8.78,0-13.69-6.06-13.69-17.7v-1.57c0-11.64,4.9-17.63,13.75-17.63s12.8,5.38,13.34,11.57v.21h8.99v-.27c-.48-10.62-7.69-19.34-22.4-19.34s-22.94,8.85-22.94,25.8v.88c0,17.02,8.1,25.87,22.88,25.87s22.13-8.71,22.6-19.47v-.27h-9.06v.34Z"/>
      <path class="cls-1" d="M1561.9,393.44c-.89-5.92-3.4-9.46-8.3-10.62v-.07c6.2-1.23,10.07-5.72,10.07-12.87v-.07c0-9.39-5.79-14.57-18.25-14.57h-22.13v50.59h9.12v-18.86h10.35c6.54,0,9.12,2.11,9.8,6.13l.89,4.9c.75,4.08,1.29,6.33,1.91,7.83h9.39c-.88-1.77-1.63-4.08-2.11-7.49l-.75-4.9ZM1544.47,379.41h-12.05v-16.54h12.73c6.4,0,9.33,2.86,9.33,7.63v.2c0,6.2-3.95,8.71-10.01,8.71Z"/>
      <polygon class="cls-1" points="1608.53 393.24 1606.76 390.51 1583.54 355.25 1572.99 355.25 1572.99 405.83 1581.91 405.83 1581.91 367.77 1583.68 370.56 1606.9 405.83 1617.45 405.83 1617.45 355.25 1608.53 355.25 1608.53 393.24"/>
      <rect class="cls-1" x="1629.43" y="382.68" width="29.62" height="7.08"/>
      <path class="cls-1" d="M1690.02,373.42c-6.81,0-10.55,2.25-12.94,5.51h-.2v-4.56c0-8.03,3.33-12.87,10.82-12.87s9.8,4.29,9.8,8.44h8.71c0-7.42-4.29-15.66-18.52-15.66s-19.47,8.78-19.47,21.65v11.1c0,11.23,4.9,19.81,19.81,19.81s19.41-8.24,19.41-17.63c0-7.63-4.36-15.8-17.43-15.8ZM1687.91,399.57c-8.17,0-10.89-5.45-10.89-10.48s3.2-9.33,10.82-9.33c8.99,0,10.89,5.58,10.89,9.46,0,4.77-2.11,10.35-10.83,10.35Z"/>
      <polygon class="cls-1" points="1768.45 375.47 1759.53 375.47 1759.53 389.97 1744.01 389.97 1759.74 355.25 1750.34 355.25 1734 391.81 1734 397.18 1759.53 397.18 1759.53 405.83 1768.45 405.83 1768.45 397.18 1775.87 397.18 1775.87 389.97 1768.45 389.97 1768.45 375.47"/>
      <polygon class="cls-1" points="1776.21 371.52 1784.93 371.52 1784.93 362.6 1803.78 362.6 1784.25 405.83 1793.98 405.83 1814.34 362.05 1814.34 355.25 1776.21 355.25 1776.21 371.52"/>
      <path class="cls-1" d="M1856.48,368.45c-.07-8.85-7.15-14.16-18.72-14.16-14.02,0-19.06,7.35-19.06,16.68h8.65c0-4.63,1.7-9.46,10.35-9.46,6.4,0,9.74,3.13,9.74,7.29,0,10.28-18.72,20.7-29.21,29.96v7.08h38.4v-7.35h-26.08c8.99-7.35,25.94-17.36,25.94-30.03Z"/>
      <path class="cls-1" d="M1882.41,354.29c-14.3,0-19.4,8.24-19.4,17.63,0,7.63,4.36,15.73,17.43,15.73,6.74,0,10.48-2.25,12.94-5.45h.2v4.56c0,7.97-3.34,12.8-10.83,12.8s-9.87-4.22-9.87-8.38h-8.65c0,7.35,4.22,15.66,18.52,15.66s19.47-8.78,19.47-21.65v-11.1c0-11.23-4.97-19.81-19.81-19.81ZM1882.62,381.32c-8.99,0-10.89-5.52-10.89-9.4,0-4.77,2.11-10.35,10.82-10.35,8.1,0,10.9,5.45,10.9,10.49s-3.27,9.26-10.83,9.26Z"/>
      <path class="cls-1" d="M1928.58,372.06c-5.24,0-9.19,1.56-11.51,3.47l.82-13h24.99v-7.29h-32.68l-1.56,27.03,7.83.75c1.7-3.27,6.6-4.7,10.35-4.7,7.42,0,10.01,3.81,10.01,10.35v.14c0,7.01-3.13,10.76-10.28,10.76s-10.01-4.29-10.01-8.71v-.07h-8.65v.21c0,8.71,5.65,15.86,18.31,15.86,13.82,0,19.54-6.13,19.54-17.84v-.14c0-12.32-7.35-16.82-17.16-16.82Z"/>
    </g>
  </g>
</svg>