<svg xmlns="http://www.w3.org/2000/svg" viewBox="0 0 24 24"><title>67.Location</title><g id="_67.Location" data-name="67.Location"><path d="M12,24A12,12,0,1,1,24,12,12.013,12.013,0,0,1,12,24ZM12,2A10,10,0,1,0,22,12,10.011,10.011,0,0,0,12,2Z"/><polygon points="3.707 18.707 2.293 17.293 8.586 11 3.293 5.707 4.707 4.293 11.414 11 3.707 18.707"/><polygon points="13 9.414 6.293 2.707 7.707 1.293 13 6.586 17.293 2.293 18.707 3.707 13 9.414"/><polygon points="17.293 21.707 10.586 15 20.293 5.293 21.707 6.707 13.414 15 18.707 20.293 17.293 21.707"/><polygon points="13.293 23.707 9 19.414 6.707 21.707 5.293 20.293 9 16.586 14.707 22.293 13.293 23.707"/></g></svg>